<svg
   width="38.976864"
   height="24.14325"
   viewBox="0 0 38.976864 24.14325"
   version="1.1"
   xmlns="http://www.w3.org/2000/svg">
  <path d="M 17.5377 24.1433 L 21.7869 1.1e-05 L 33.6847 1.1e-05 C 35.5646 1.1e-05 36.9166 0.321921 37.7407 0.965741 C 38.5648 1.60956 38.9769 2.60104 38.9769 3.94019 C 38.9769 6.00041 38.5133 7.64859 37.5862 8.88473 C 36.6849 10.0951 35.6676 10.8419 34.5345 11.1252 L 34.4959 11.357 C 35.7578 11.5888 36.6462 12.1167 37.1613 12.9408 C 37.7021 13.7649 37.9725 14.7692 37.9725 15.9539 C 37.9725 17.396 37.7021 18.748 37.1613 20.0099 C 36.6462 21.2461 35.8479 22.2504 34.7663 23.023 C 33.7104 23.7698 32.3713 24.1433 30.7488 24.1433 Z M 20.2803 1.73833 L 3.94017 1.1e-05 L 20.5894 1.1e-05 Z M 19.6623 5.44673 L 3.28348 3.70841 L 19.9327 3.70841 Z M 27.5426 8.88473 L 29.8217 8.88473 C 30.4913 8.88473 30.9549 8.6272 31.2124 8.11214 C 31.4699 7.59709 31.5987 7.01765 31.5987 6.37383 C 31.5987 6.03904 31.5214 5.78151 31.3669 5.60125 C 31.2124 5.39522 30.9291 5.29221 30.5171 5.29221 L 28.1993 5.29221 Z M 19.0056 9.15513 L 2.62678 7.41682 L 19.3146 7.41682 Z M 18.3489 12.8635 L 1.97008 11.1252 L 18.6579 11.1252 Z M 25.8429 18.4648 L 28.7015 18.4648 C 29.3968 18.4648 29.899 18.1944 30.208 17.6536 C 30.5171 17.1127 30.6716 16.4818 30.6716 15.7607 C 30.6716 15.4002 30.5814 15.104 30.4012 14.8723 C 30.2209 14.6405 29.899 14.5246 29.4354 14.5246 L 26.5383 14.5246 Z M 17.6922 16.5719 L 1.31339 14.8336 L 18.0012 14.8336 Z M 17.0355 20.2803 L 0.656691 18.542 L 17.3445 18.542 Z M 16.3788 24.0274 L -5e-06 22.2891 L 16.6878 22.2891 Z"/>
</svg>
