<svg width="686.57px" height="200px" viewBox="0 0 686.5683 200" version="1.1"  xmlns="http://www.w3.org/2000/svg">
  <path fill="#00c853" d="m 20,0 h 160 c 11.08,0 20,8.92 20,20 v 160 c 0,11.08 -8.92,20 -20,20 H 20 C 8.92,200 0,191.08 0,180 V 20 C 0,8.92 8.92,0 20,0 Z"/>
  <path fill="#ffffff" d="m 88.460216,150.65527 17.600004,-100 h 48 q 10.4,0 16.32,3.36 5.92,3.2 8.32,8.96 2.56,5.76 2.56,12.96 0,4.32 -0.96,10.72 -0.8,6.4 -3.2,13.279996 -2.4,6.880004 -6.72,12.960004 -4.32,6.08 -11.04,9.92 -6.72,3.68 -16.48,3.68 h -19.84 l -4.16,24.16 z m 11.360003,-92.8 -67.680003,-7.2 h 68.960004 z m -2.720003,15.36 -67.68,-7.2 h 68.96 z m 30.400004,27.68 h 7.04 q 4.64,0 7.84,-0.960004 3.2,-1.119996 4,-5.759996 1.12,-5.92 1.44,-8.48 0.48,-2.72 0.48,-3.52 0.16,-0.8 0.16,-0.96 0,-3.36 -2.72,-4.16 -2.72,-0.8 -6.88,-0.8 h -7.04 z m -33.120004,-12.32 -67.68,-7.2 h 68.96 z m -2.72,15.36 -67.68,-7.2 h 68.96 z m -2.56,15.36 -67.84,-7.2 h 69.12 z m -2.72,15.36 -67.84,-7.2 h 69.12 z m -2.72,15.52 -67.84,-7.2 h 69.12 z" />
  <path fill="#00c853" d="M 273.59462,110.37976 H 255.11708 V 98.725464 h 18.47754 q 4.2832,0 6.97266,-1.394531 2.68945,-1.444336 3.93457,-3.984375 1.24511,-2.540039 1.24511,-5.727539 0,-3.237305 -1.24511,-6.026368 -1.24512,-2.789062 -3.93457,-4.482422 -2.68946,-1.693359 -6.97266,-1.693359 h -13.29785 v 60.81152 H 245.35536 V 63.712769 h 28.23926 q 8.5166,0 14.59277,3.08789 6.12598,3.038086 9.36328,8.416992 3.23731,5.378907 3.23731,12.301758 0,7.022461 -3.23731,12.152344 -3.2373,5.129887 -9.36328,7.918947 -6.07617,2.78906 -14.59277,2.78906 z m 37.50293,-46.666991 h 27.04394 q 8.31739,0 14.29395,2.490234 6.02637,2.490234 9.26367,7.371094 3.23731,4.880859 3.23731,12.002929 0,5.827149 -1.99219,10.010743 -1.94238,4.133789 -5.52832,6.922851 -3.53613,2.73926 -8.31738,4.38281 l -4.73145,2.49024 h -23.50781 l -0.0996,-11.6543 h 17.48144 q 3.93457,0 6.52442,-1.394531 2.58984,-1.394531 3.88476,-3.884766 1.34473,-2.490234 1.34473,-5.777344 0,-3.486328 -1.29492,-6.026367 -1.29492,-2.540039 -3.93457,-3.884765 -2.63965,-1.344727 -6.62403,-1.344727 h -12.10253 v 60.81152 h -14.94141 z m 40.54102,72.515621 -16.53516,-32.32324 15.78808,-0.0996 16.73438,31.72559 v 0.69726 z m 73.46191,-11.65429 v 11.65429 H 386.50185 V 124.5741 Z M 391.38271,63.712769 V 136.22839 H 376.4413 V 63.712769 Z m 28.6875,29.534179 V 104.60242 H 386.50185 V 93.246948 Z m 4.98046,-29.534179 V 75.41687 H 386.50185 V 63.712769 Z m 46.51758,53.540041 q 0,-1.94239 -0.59765,-3.48633 -0.54786,-1.59375 -2.0918,-2.88867 -1.54395,-1.34473 -4.33301,-2.63965 -2.78906,-1.29492 -7.22168,-2.68945 -4.93066,-1.59375 -9.36328,-3.58594 -4.38281,-1.992189 -7.76953,-4.631837 -3.33691,-2.689454 -5.2793,-6.225586 -1.89258,-3.536133 -1.89258,-8.217774 0,-4.532226 1.99219,-8.217773 1.99219,-3.735352 5.57813,-6.375 3.58593,-2.689453 8.46679,-4.133789 4.93067,-1.444336 10.80762,-1.444336 8.01856,0 13.99512,2.888672 5.97656,2.888672 9.26367,7.918945 3.33691,5.030273 3.33691,11.504883 h -14.84179 q 0,-3.1875 -1.34473,-5.578125 -1.29492,-2.44043 -3.98437,-3.834961 -2.63965,-1.394531 -6.67383,-1.394531 -3.88477,0 -6.47461,1.195312 -2.58985,1.145508 -3.88477,3.137695 -1.29492,1.942383 -1.29492,4.382813 0,1.842773 0.89649,3.336914 0.94628,1.494141 2.78906,2.789062 1.84277,1.294922 4.53222,2.44043 2.68946,1.145508 6.22559,2.241211 5.92676,1.792969 10.40918,4.03418 4.53223,2.241215 7.57031,5.030275 3.03809,2.78906 4.58203,6.32519 1.54395,3.53614 1.54395,8.01856 0,4.73144 -1.84277,8.4668 -1.84278,3.73535 -5.32911,6.32519 -3.48632,2.58984 -8.31738,3.93457 -4.83105,1.34473 -10.80762,1.34473 -5.3789,0 -10.60839,-1.39453 -5.2295,-1.44434 -9.5127,-4.33301 -4.2334,-2.88867 -6.77344,-7.3711 -2.54004,-4.48242 -2.54004,-10.60839 h 14.99121 q 0,3.38671 1.0459,5.72754 1.0459,2.34082 2.93848,3.78515 1.94238,1.44434 4.58203,2.0918 2.68945,0.64746 5.87695,0.64746 3.88477,0 6.375,-1.0957 2.54004,-1.09571 3.73536,-3.03809 1.24511,-1.94238 1.24511,-4.38281 z m 57.47461,-53.540041 v 72.515621 h -14.8916 V 63.712769 Z m 22.3125,0 V 75.41687 H 492.18739 V 63.712769 Z m 32.63297,12.401367 -19.72266,60.114254 h -15.88769 l 26.94433,-72.515621 h 10.11035 z m 16.38574,60.114254 -19.77246,-60.114254 -1.59375,-12.401367 h 10.20996 l 27.09375,72.515621 z m -0.89649,-26.99414 v 11.7041 h -38.2998 v -11.7041 z" />
</svg>
