<svg width="200px" height="200px" viewBox="0 0 200 200" version="1.1" xmlns="http://www.w3.org/2000/svg">
  <path fill="#00c853"  d="m 20,0 h 160 c 11.08,0 20,8.92 20,20 v 160 c 0,11.08 -8.92,20 -20,20 H 20 C 8.92,200 0,191.08 0,180 V 20 C 0,8.92 8.92,0 20,0 Z" />
  <path d="M 91.893975,150.78711 109.49397,50.787109 h 48 q 10.4,0 16.32,3.36 5.92,3.2 8.32,8.96 2.56,5.76 2.56,12.96 0,4.32 -0.96,10.72 -0.8,6.4 -3.2,13.280001 -2.4,6.88 -6.72,12.96 -4.32,6.08 -11.04,9.92 -6.72,3.68 -16.48,3.68 h -19.84 l -4.16,24.16 z m 11.359995,-92.800001 -67.679995,-7.2 h 68.959995 z m -2.72,15.36 -67.679995,-7.2 h 68.959995 z m 30.4,27.680001 h 7.04 q 4.64,0 7.84,-0.96 3.2,-1.120001 4,-5.760001 1.12,-5.92 1.44,-8.48 0.48,-2.72 0.48,-3.52 0.16,-0.8 0.16,-0.96 0,-3.36 -2.72,-4.16 -2.72,-0.8 -6.88,-0.8 h -7.04 z m -33.119995,-12.320001 -67.68,-7.2 h 68.96 z m -2.72,15.360001 -67.68,-7.200001 h 68.96 z m -2.56,15.36 -67.84,-7.2 h 69.12 z m -2.72,15.36 -67.84,-7.2 h 69.12 z m -2.72,15.52 -67.84,-7.2 h 69.12 z" style="fill:#ffffff" />
</svg>
